<?xml version="1.0" encoding="UTF-8" standalone="no"?>
<!-- Generator: Adobe Illustrator 19.0.0, SVG Export Plug-In . SVG Version: 6.00 Build 0)  -->

<svg
   version="1.1"
   id="Layer_1"
   x="0px"
   y="0px"
   viewBox="-100 -100 2562.9891 2743.0022"
   xml:space="preserve"
   inkscape:version="1.4.4 (dcaf3e7, 2026-05-05)"
   sodipodi:docname="crisp.svg"
   width="2562.991"
   height="2743.0039"
   inkscape:export-filename="crisp.png"
   inkscape:export-xdpi="96"
   inkscape:export-ydpi="96"
   xmlns:inkscape="http://www.inkscape.org/namespaces/inkscape"
   xmlns:sodipodi="http://sodipodi.sourceforge.net/DTD/sodipodi-0.dtd"
   xmlns:xlink="http://www.w3.org/1999/xlink"
   xmlns="http://www.w3.org/2000/svg"
   xmlns:svg="http://www.w3.org/2000/svg"
   xmlns:rdf="http://www.w3.org/1999/02/22-rdf-syntax-ns#"
   xmlns:cc="http://creativecommons.org/ns#"
   xmlns:dc="http://purl.org/dc/elements/1.1/"><metadata
   id="metadata43"><rdf:RDF><cc:Work
       rdf:about=""><dc:format>image/svg+xml</dc:format><dc:type
         rdf:resource="http://purl.org/dc/dcmitype/StillImage" /></cc:Work></rdf:RDF></metadata><defs
   id="defs41"><linearGradient
   id="linearGradient15"
   inkscape:collect="always"><stop
     style="stop-color:#4f9bff;stop-opacity:1;"
     offset="0"
     id="stop15" /><stop
     style="stop-color:#1768fb;stop-opacity:1;"
     offset="1"
     id="stop16" /></linearGradient><linearGradient
   id="linearGradient7"
   inkscape:collect="always"><stop
     style="stop-color:#fefefe;stop-opacity:1;"
     offset="0"
     id="stop8" /><stop
     style="stop-color:#fefefe;stop-opacity:1;"
     offset="0.22923781"
     id="stop11" /><stop
     style="stop-color:#e8e9ee;stop-opacity:1;"
     offset="0.48125556"
     id="stop12" /><stop
     style="stop-color:#d2d9e0;stop-opacity:1;"
     offset="0.72489029"
     id="stop10" /><stop
     style="stop-color:#b3d9ef;stop-opacity:1;"
     offset="1"
     id="stop9" /></linearGradient>








<linearGradient
   inkscape:collect="always"
   xlink:href="#linearGradient7"
   id="linearGradient12"
   x1="-1485.2438"
   y1="554.97034"
   x2="-1485.2438"
   y2="1214.6171"
   gradientUnits="userSpaceOnUse" /><linearGradient
   inkscape:collect="always"
   xlink:href="#linearGradient7"
   id="linearGradient14"
   x1="-904.55237"
   y1="565.01074"
   x2="-904.55237"
   y2="1207.7827"
   gradientUnits="userSpaceOnUse" /><linearGradient
   inkscape:collect="always"
   xlink:href="#linearGradient15"
   id="linearGradient16"
   x1="-1288.337"
   y1="-8.0311918"
   x2="-1288.337"
   y2="1780.6853"
   gradientUnits="userSpaceOnUse"
   gradientTransform="matrix(0.99726585,0,0,0.99726585,2510.0196,11.371734)" /><filter
   style="color-interpolation-filters:sRGB;"
   inkscape:label="Drop Shadow"
   id="filter26"
   x="-0.013585724"
   y="-0.013587719"
   width="1.0271714"
   height="1.0384985"><feFlood
     result="flood"
     in="SourceGraphic"
     flood-opacity="0.498039"
     flood-color="rgb(0,0,0)"
     id="feFlood25" /><feGaussianBlur
     result="blur"
     in="SourceGraphic"
     stdDeviation="10.000000"
     id="feGaussianBlur25" /><feOffset
     result="offset"
     in="blur"
     dx="0.000000"
     dy="20.000000"
     id="feOffset25" /><feComposite
     result="comp1"
     operator="in"
     in="flood"
     in2="offset"
     id="feComposite25" /><feComposite
     result="comp2"
     operator="over"
     in="SourceGraphic"
     in2="comp1"
     id="feComposite26" /></filter><filter
   style="color-interpolation-filters:sRGB;"
   inkscape:label="Drop Shadow"
   id="filter31"
   x="-0.08276639"
   y="-0.14785434"
   width="1.1655328"
   height="1.3265117"><feFlood
     result="flood"
     in="SourceGraphic"
     flood-opacity="0.498039"
     flood-color="rgb(0,0,0)"
     id="feFlood30" /><feGaussianBlur
     result="blur"
     in="SourceGraphic"
     stdDeviation="40.000000"
     id="feGaussianBlur30" /><feOffset
     result="offset"
     in="blur"
     dx="0.000000"
     dy="20.000000"
     id="feOffset30" /><feComposite
     result="comp1"
     operator="in"
     in="flood"
     in2="offset"
     id="feComposite30" /><feComposite
     result="comp2"
     operator="over"
     in="SourceGraphic"
     in2="comp1"
     id="feComposite31" /></filter></defs><sodipodi:namedview
   pagecolor="#ffffff"
   bordercolor="#666666"
   borderopacity="1"
   objecttolerance="10"
   gridtolerance="10"
   guidetolerance="10"
   inkscape:pageopacity="0"
   inkscape:pageshadow="2"
   inkscape:window-width="2587"
   inkscape:window-height="1791"
   id="namedview39"
   showgrid="false"
   inkscape:zoom="0.32593204"
   inkscape:cx="951.11852"
   inkscape:cy="1328.4978"
   inkscape:window-x="939"
   inkscape:window-y="190"
   inkscape:window-maximized="0"
   inkscape:current-layer="Layer_1"
   fit-margin-top="50"
   fit-margin-left="600"
   fit-margin-right="600"
   fit-margin-bottom="50"
   inkscape:showpageshadow="0"
   inkscape:pagecheckerboard="0"
   inkscape:deskcolor="#d1d1d1"
   showguides="true" /><g
   id="g9"
   transform="translate(-600.03404,2553.6202)" /><g
   id="g11"
   transform="translate(-600.03404,2553.6202)" /><g
   id="g13"
   transform="translate(-600.03404,2553.6202)" /><g
   id="g15"
   transform="translate(-600.03404,2553.6202)" /><g
   id="g17"
   transform="translate(-600.03404,2553.6202)" /><g
   id="g19"
   transform="translate(-600.03404,2553.6202)" /><g
   id="g21"
   transform="translate(-600.03404,2553.6202)" /><g
   id="g23"
   transform="translate(-600.03404,2553.6202)" /><g
   id="g25"
   transform="translate(-600.03404,2553.6202)" /><g
   id="g27"
   transform="translate(-600.03404,2553.6202)" /><g
   id="g29"
   transform="translate(-600.03404,2553.6202)" /><g
   id="g31"
   transform="translate(-600.03404,2553.6202)" /><g
   id="g33"
   transform="translate(-600.03404,2553.6202)" /><g
   id="g35"
   transform="translate(-600.03404,2553.6202)" /><g
   id="g37"
   transform="translate(-600.03404,2553.6202)" /><text
   xml:space="preserve"
   style="font-style:normal;font-weight:normal;font-size:16.4979px;line-height:0%;font-family:sans-serif;letter-spacing:0px;word-spacing:0px;fill:#3681ff;fill-opacity:1;stroke:none;stroke-width:52.9396;stroke-linecap:butt;stroke-linejoin:miter;stroke-dasharray:none;stroke-opacity:1"
   x="-50.696884"
   y="2534.4109"
   id="text4189"><tspan
     sodipodi:role="line"
     id="tspan4191"
     x="-50.696884"
     y="2534.4109"
     style="font-style:normal;font-variant:normal;font-weight:normal;font-stretch:normal;font-size:859.269px;line-height:1.25;font-family:Rubik;-inkscape-font-specification:Rubik;fill:#3681ff;fill-opacity:1;stroke:none;stroke-width:52.9396;stroke-dasharray:none;stroke-opacity:1">CRISP</tspan></text>
<g
   id="g38"
   transform="translate(1.203134)"><path
     id="p1FFOgrdtw"
     d="m 708.27225,1776.4394 c -48.36968,-3.9583 -97.53449,-6.6612 -143.83156,-22.5082 -56.47527,-17.7114 -108.49425,-48.9523 -150.12252,-91.1119 -56.78232,-54.7801 -93.40831,-129.0034 -105.63907,-206.7293 -4.65035,-16.6438 -3.04166,-33.8178 -6.8211,-50.6264 -2.44131,-19.1498 -0.6573,-38.5168 -2.71755,-57.7906 -2.14652,-54.0805 -0.56425,-108.2341 -1.43347,-162.349 -0.95987,-247.85483 -1.16391,-495.72943 0.95638,-743.57253 3.26674,-50.94047 4.97097,-102.51585 19.59777,-151.816 C 346.2459,186.51073 423.14527,99.19981 518.86584,52.531873 578.20635,24.469659 644.56123,16.010597 709.4583,12.916835 c 75.93611,-0.77821 528.473,-4.2260857 701.4358,-0.899649 88.7185,0.479493 177.5107,-0.583674 266.1755,2.111622 50.0514,4.86593 100.8236,10.533492 147.7018,29.935442 120.2971,48.13498 211.4252,163.07907 229.3904,291.61346 13.5563,86.28451 7.0338,173.88791 8.9248,260.81902 0.4635,257.51396 1.1277,515.04237 -0.9021,772.54697 -2.4838,77.1634 -16.7082,156.2539 -57.8559,222.783 -52.7002,87.647 -142.821,152.2787 -243.4257,171.8634 -53.1962,11.848 -107.9713,13.4696 -162.2609,12.4761 -296.7887,1.0569 -593.5802,0.7981 -890.36975,0.2732 z"
     style="fill:url(#linearGradient16);stroke-width:0.138472;filter:url(#filter26)"
     sodipodi:nodetypes="ccccccccccccccccccccc" /><g
     id="g16"
     transform="matrix(0.99726585,0,0,0.99726585,2510.0196,11.371734)"
     style="filter:url(#filter31)"><path
       id="phtvPmzom"
       d="m -1712.2678,1207.5566 c -19.1786,-1.9262 -38.147,-5.5936 -57.1774,-8.5781 -29.6033,-5.1928 -55.6777,-22.2774 -77.7273,-42.0044 -35.1087,-32.2844 -58.5888,-77.672 -61.2561,-125.6052 -4.3473,-71.41312 -2.4901,-142.99512 -3.2113,-214.49514 0,-65.36179 -0.4233,-130.77804 1.3246,-196.1002 5.4627,-33.14809 37.0433,-60.77523 71.1579,-58.55198 51.9245,-0.46465 103.7807,-3.82168 155.7222,-3.38146 89.0681,-0.3918 178.1458,-0.57919 267.1954,1.61984 44.2428,1.38495 88.5031,1.21645 132.7583,1.65514 19.8499,0.66486 40.1032,-0.0474 59.1354,6.59541 53.3614,15.09183 103.7094,50.77292 125.613,103.03647 19.4239,45.62745 17.6987,96.27855 18.1161,144.86579 0.9141,110.38585 0.9804,220.80463 -1.109,331.17253 -3.3033,35.0933 -38.4291,62.5541 -73.1689,59.3003 -185.7886,1.1792 -371.5823,0.7938 -557.3729,0.471 z"
       style="fill:url(#linearGradient12);stroke-width:0.138852" /><path
       id="pD58gQ16n"
       d="m -801.8157,1201.5859 c -14.64195,-2.9876 -27.21763,-11.6992 -38.5852,-20.9965 -26.77967,-20.5203 -52.09302,-42.8567 -78.39508,-63.9712 -24.85516,-20.6684 -50.4263,-40.5162 -74.36687,-62.2563 -16.92185,-16.7668 -30.32015,-37.886 -34.81375,-61.52901 -5.4483,-26.53835 -4.5482,-53.77069 -5.2297,-80.70509 -0.5228,-39.73718 -0.1632,-79.51597 2.3168,-119.18769 3.068,-29.75683 17.7518,-57.6655 38.67549,-78.78294 9.86526,-9.73673 20.80639,-18.29912 31.39955,-27.21552 20.86227,-17.05836 41.93131,-33.86369 62.61532,-51.1394 19.19536,-15.64172 38.34954,-31.33477 57.43538,-47.10899 6.26705,-4.89883 12.4936,-10.00054 19.55278,-13.7214 14.91965,-7.09917 33.58544,-7.62967 48.0123,0.96697 10.8096,6.63569 18.17555,18.74023 18.37358,31.51124 1.02357,15.10038 2.28026,30.19635 2.32865,45.34251 0.1651,21.25418 0.004,42.50964 0.24821,63.76364 0.6134,144.97266 0.76988,289.95108 -0.58678,434.92018 -1.93861,10.6332 -2.04688,22.2819 -8.6445,31.3788 -9.02859,12.5809 -24.95351,19.806 -40.33618,18.7307 z"
       style="fill:url(#linearGradient14);stroke-width:0.138852" /></g><path
     id="pAnZE88p5"
     d="m 301.71768,441.56659 c -1.80016,-1.66166 -0.96934,-4.56958 1.10777,-4.56958 1.10776,0 2.0771,1.24624 2.0771,2.76945 0,2.76943 -1.52322,3.60028 -3.18487,1.80013 z"
     style="fill:#b0d1e2;stroke-width:0.138472" /><path
     id="pkFYtstgi"
     d="m 346.44426,225.82677 c 0,-1.10777 0.96924,-2.07708 2.21552,-2.07708 1.93859,0 1.93859,0.41542 0.55389,2.07708 -0.96935,1.10779 -1.93859,2.07709 -2.21553,2.07709 -0.27694,0 -0.55388,-0.9693 -0.55388,-2.07709 z"
     style="fill:#b0d1e2;stroke-width:0.138472" /></g></svg>
